<svg width="71" height="70" viewBox="0 0 71 70" fill="none" xmlns="http://www.w3.org/2000/svg">
<path d="M33.3086 27.7734C33.3086 29.4961 32.7109 30.9492 31.5156 32.1328C30.5195 33.1172 29.5527 33.6094 28.6152 33.6094C24.6777 33.6094 21.0566 33.6094 17.752 33.6094C14.459 33.6094 11.8398 33.6094 9.89453 33.6094C7.94922 33.6211 6.36719 33.6328 5.14844 33.6445C5.08984 33.6562 4.99609 33.6621 4.86719 33.6621C4.64453 33.6621 4.46289 33.627 4.32227 33.5566C4.18164 33.4863 4.11133 33.3633 4.11133 33.1875C4.11133 33.1523 4.12305 33.0879 4.14648 32.9941C4.49805 31.834 4.9082 30.8672 5.37695 30.0938C5.81055 29.3789 6.31445 28.7695 6.88867 28.2656C7.29883 27.9023 7.94922 27.4395 8.83984 26.877C7.79688 26.291 6.91797 25.5879 6.20312 24.7676C5.41797 23.877 5.02539 22.9629 5.02539 22.0254L5.07812 3.48047H16.6094L16.6445 0.597656L21.8652 0.5625V3.48047L33.502 3.51562L33.5547 4.86914C33.5547 5.74805 33.3496 6.60938 32.9395 7.45312C32.4121 8.53125 31.5625 9.57422 30.3906 10.582H33.3086V27.7734ZM27.9648 19.3535L27.9297 8.13867H10.4043V21.1641C10.4043 21.6211 10.5332 21.9727 10.791 22.2188C11.0488 22.4648 11.3828 22.5879 11.793 22.5879C13.1758 22.5879 14.623 22.5938 16.1348 22.6055C17.6465 22.6172 19.123 22.6289 20.5645 22.6406C22.0059 22.6406 23.4941 22.6465 25.0293 22.6582C25.1113 22.6582 25.2754 22.6699 25.5215 22.6934C25.7676 22.7051 25.9141 22.7109 25.9609 22.7109C26.3594 22.7109 26.6934 22.6934 26.9629 22.6582C27.2441 22.6113 27.4551 22.5234 27.5957 22.3945C27.748 22.2656 27.8477 22.1074 27.8945 21.9199C27.9531 21.7324 27.9824 21.457 27.9824 21.0938C27.9824 20.8828 27.9766 20.6602 27.9648 20.4258C27.9648 20.1797 27.9648 19.916 27.9648 19.6348V19.3535ZM27.9648 28.4941V24.4688H27.666C27.373 25.043 26.9805 25.5527 26.4883 25.998C25.7617 26.6426 25.2227 26.9648 24.8711 26.9648C22.8086 26.9648 20.8105 26.9707 18.877 26.9824C16.9551 26.9824 15.2617 26.9883 13.7969 27C12.3438 27 11.0605 27 9.94727 27V28.0723C9.94727 28.6582 9.98242 29.0156 10.0527 29.1445C10.1816 29.3789 10.5039 29.4961 11.0195 29.4961L26.6992 29.4434C27.1094 29.4434 27.4082 29.3613 27.5957 29.1973C27.7832 29.0332 27.9062 28.7988 27.9648 28.4941ZM21.7422 17.3848C20.7812 17.3848 19.8672 17.3848 19 17.3848C18.1328 17.373 17.3066 17.3613 16.5215 17.3496V12.375H21.7422V17.3848ZM65.5645 24.4336L61.8203 28.1426C61.7031 28.1426 61.1816 27.6152 60.2559 26.5605C59.7637 26.0098 59.2773 25.4531 58.7969 24.8906C58.3164 24.375 57.9473 23.9766 57.6895 23.6953C57.1973 23.1562 56.7168 22.5879 56.248 21.9902C55.1816 20.6309 54.3145 19.4941 53.6465 18.5801C53.2363 18.0059 52.8262 17.4258 52.416 16.8398C52.0996 16.4062 51.8008 16.043 51.5195 15.75L51.5547 17.7539C50.8516 17.7539 50.2949 17.7656 49.8848 17.7891C49.4746 17.8008 49.0234 17.8125 48.5312 17.8242C48.1211 18.6562 47.3125 20.1211 46.1055 22.2188C44.957 24.2344 44.002 25.8516 43.2402 27.0703H37.3164C37.3164 27.0352 37.9785 25.834 39.3027 23.4668C41.6582 19.2598 42.8828 17.0684 42.9766 16.8926C44.3008 14.5371 44.9688 13.3594 44.9805 13.3594L50.2539 13.3945C50.1836 13.2422 49.8438 12.668 49.2344 11.6719C48.6367 10.6758 48.2852 10.0547 48.1797 9.80859C48.3086 9.69141 48.6484 9.48047 49.1992 9.17578C49.7617 8.85938 50.2188 8.53711 50.5703 8.20898H38.0371C38.0137 7.48242 37.9961 6.68555 37.9844 5.81836C37.9727 4.95117 37.9668 4.18359 37.9668 3.51562L65.0371 3.44531L65.0723 8.20898L53.5234 8.26172C54.0156 9.10547 54.4902 9.91406 54.9473 10.6875C55.709 11.9648 56.3594 13.0078 56.8984 13.8164C57.6719 14.9883 58.3633 15.9375 58.9727 16.6641C59.2188 16.957 59.5703 17.3965 60.0273 17.9824C60.9297 19.1426 61.6855 20.0742 62.2949 20.7773C63.3496 21.9961 64.0645 22.8164 64.4395 23.2383C64.709 23.5312 65.084 23.9297 65.5645 24.4336ZM36.5078 68.9648H30.8125C30.3672 67.7227 29.8223 66.2812 29.1777 64.6406C28.5449 62.9883 27.7832 61.0605 26.8926 58.8574C26.6582 58.2598 26.0195 56.5371 24.9766 53.6895C24.4727 52.3301 24.0566 51.4395 23.7285 51.0176C23.3184 50.502 22.7441 50.2441 22.0059 50.2441C21.8184 50.2441 21.584 50.2266 21.3027 50.1914C21.0215 50.1562 20.7754 50.1387 20.5645 50.1387L27.2441 69.0703C27.0801 69.0703 26.4121 69.0586 25.2402 69.0352C24.0684 69.0117 22.8789 69 21.6719 69C21.3203 68.2266 20.998 67.3652 20.7051 66.416C20.459 65.6426 20.2363 64.9805 20.0371 64.4297C19.3457 62.6367 18.4551 60.1465 17.3652 56.959C16.4629 54.334 15.8359 52.6289 15.4844 51.8438C14.9102 50.5781 14.3828 49.9453 13.9023 49.9453H8.59375C8.59375 52.3008 8.59961 54.4805 8.61133 56.4844C8.62305 58.4766 8.63477 60.4746 8.64648 62.4785C8.66992 64.4707 8.68164 66.6445 8.68164 69H0.314453L0.279297 65.0801C0.724609 65.0801 1.11719 65.0859 1.45703 65.0977C1.79688 65.1094 2.0957 65.1152 2.35352 65.1152C2.81055 65.0098 3.11523 64.793 3.26758 64.4648C3.41992 64.125 3.49609 63.6621 3.49609 63.0762C3.49609 61.1309 3.48438 59.6309 3.46094 58.5762C3.44922 57.5098 3.43164 56.1914 3.4082 54.6211C3.38477 53.0391 3.37305 51.5039 3.37305 50.0156C2.70508 50.0156 2.0957 50.0156 1.54492 50.0156C1.00586 50.0039 0.525391 49.9922 0.103516 49.9805L0.0683594 45.4805L15.6074 45.4453C16.1113 45.4453 16.5508 45.5508 16.9258 45.7617C17.6875 46.1953 18.7539 47.1621 20.125 48.6621V45.4453C20.8281 45.4453 21.5371 45.457 22.252 45.4805C22.9785 45.4922 23.6934 45.5039 24.3965 45.5156C25.9668 45.5156 27.0977 45.9434 27.7891 46.7988C28.2461 47.4668 28.7031 48.1289 29.1602 48.7852V45.5156H34.416V49.9453C34.1582 49.9453 33.6133 49.9453 32.7812 49.9453C31.9492 49.9453 30.8711 49.9453 29.5469 49.9453C29.8984 51.0469 30.4961 52.7402 31.3398 55.0254C31.5508 55.5879 32.3828 57.8086 33.8359 61.6875C34.8906 64.5 35.7812 66.9258 36.5078 68.9648ZM70.3457 49.6816L41.1836 49.6465V45.252L52.8203 45.2168V42.1055H58.8145L58.8496 45.1992H70.3457C70.3457 45.4922 70.3457 46.0488 70.3457 46.8691C70.3457 47.6777 70.3457 48.6152 70.3457 49.6816ZM70.0645 68.9648H47.582C46.6094 68.9648 45.7012 68.8125 44.8574 68.5078C44.0137 68.2031 43.2344 67.7285 42.5195 67.084C41.8867 66.5332 41.4707 65.9238 41.2715 65.2559C41.1309 64.7988 41.0605 64.1191 41.0605 63.2168V62.1973V52.3711C41.5527 52.3711 43.7734 52.3652 47.7227 52.3535C51.6836 52.3418 55.8086 52.3301 60.0977 52.3184C64.3984 52.2949 67.8027 52.2832 70.3105 52.2832V56.7305L47.248 56.6953C47.248 57.4922 47.2188 58.2949 47.1602 59.1035C47.1016 59.9121 47.0547 60.5742 47.0195 61.0898C47.0195 62.5195 47.1543 63.457 47.4238 63.9023C47.752 64.4531 48.291 64.7285 49.041 64.7285H64.2812C64.7852 64.7285 65.1602 64.4941 65.4062 64.0254C65.6641 63.5566 65.793 62.8945 65.793 62.0391H70.0645V68.9648Z" fill="#04CFD7"/>
</svg>
